<?xml version="1.0" ?><!DOCTYPE svg  PUBLIC '-//W3C//DTD SVG 1.1//EN'  'http://www.w3.org/Graphics/SVG/1.1/DTD/svg11.dtd'><svg xmlns="http://www.w3.org/2000/svg" xmlns:xlink="http://www.w3.org/1999/xlink" xml:space="preserve" width="512px" height="512px" style="shape-rendering:geometricPrecision; text-rendering:geometricPrecision; image-rendering:optimizeQuality; fill-rule:evenodd; clip-rule:evenodd" viewBox="0 0 512 512"><defs><style type="text/css">
   <![CDATA[
    .fil0 {fill:black}
   ]]>
  </style></defs><g id="Layer_x0020_1"><g id="_214819128"><g><g id="_278284112"><path id="_213055168" class="fil0" d="M199.051 295.2c-58.6006,0 -106.3,-47.699 -106.3,-106.298l0 -29.1001c0,-3.30001 2.70001,-6.00002 6.00002,-6.00002l200.698 0c3.30001,0 6.00002,2.70001 6.00002,6.00002l0 29.1001c0,58.5994 -47.7001,106.298 -106.399,106.298zm-94.3007 -129.499l0 23.1001c0,52.0006 42.3001,94.2983 94.2995,94.2983 52.0006,0 94.2983,-42.2989 94.2983,-94.2983l0 -23.1001 -188.598 0z"/></g><g id="_278284016"><path id="_213055480" class="fil0" d="M199.051 368.8c-23.8997,0 -43.3005,-19.3997 -43.3005,-43.3005l0 -43.5001c0,-1.99961 1.0004,-3.90001 2.59961,-4.99962 1.69961,-1.09961 3.79962,-1.3004 5.59962,-0.600002 11.2004,4.50001 22.9997,6.79963 35.1001,6.79963 12.1004,0 23.8997,-2.29961 35.1001,-6.79963 1.9004,-0.700396 3.90001,-0.499608 5.59962,0.600002 1.69961,1.09961 2.59961,3.00001 2.59961,4.99962l0 43.5001c0.101575,23.8997 -19.3985,43.3005 -43.2982,43.3005zm-31.3005 -78.3002l0 34.9997c0,17.2997 13.9996,31.3005 31.3005,31.3005 17.2997,0 31.3005,-13.9996 31.3005,-31.3005l0 -34.9997c-10.0996,3.1004 -20.5997,4.69962 -31.3005,4.69962 -10.6996,0 -21.1997,-1.59922 -31.3005,-4.69962z"/></g><g id="_278284448"><path id="_213055312" class="fil0" d="M377.15 512l-356.099 0c-3.30001,0 -6.00002,-2.70001 -6.00002,-6.00002l0 -83.7995c0,-58.3006 47.5005,-105.8 105.8,-105.8l0 0 40.9997 0c3.30001,0 6.00002,2.70001 6.00002,6.00002l0 3.1004c0,17.2997 13.9996,31.3005 31.3005,31.3005 17.2997,0 31.3005,-13.9996 31.3005,-31.3005l0 -3.1004c0,-3.30001 2.70001,-6.00002 6.00002,-6.00002l40.9974 0c58.3006,0 105.8,47.5005 105.8,105.8l0 83.7995c-0.0992129,3.30001 -2.79922,6.00002 -6.09923,6.00002zm-350.099 -12l344.099 0 0 -77.7995c0,-51.7006 -42.1005,-93.7999 -93.7999,-93.7999l-35.0989 -0.00118111c-1.5,22.5001 -20.2997,40.3997 -43.2001,40.3997 -22.9005,0 -41.7001,-17.8997 -43.2001,-40.3997l-35.1001 0 0 0c-24.9001,0 -48.4998,9.79964 -66.1998,27.6001 -17.8004,17.8004 -27.6001,41.2997 -27.6001,66.1998l0 77.8006 0.100394 0z"/></g><g><g id="_278284688"><path id="_289666096" class="fil0" d="M140.051 429.6l-40.1009 0c-3.30001,0 -6.00002,-2.70001 -6.00002,-6.00002l0 -99.0003c0,-2.8004 1.99961,-5.29962 4.69962,-5.89962 7.20002,-1.5 14.7,-2.29961 22.0997,-2.29961l19.3016 0c3.30001,0 6.00002,2.70001 6.00002,6.00002l0 101.2c0,3.30001 -2.70001,6.00002 -6.00002,6.00002zm-34.0005 -12l28.0997 0 0 -89.1995 -13.2993 -0.00118111c-4.90041,0 -9.90003,0.400395 -14.8004,1.2l0 88.0007z"/></g><g id="_278284352"><path id="_287013128" class="fil0" d="M298.149 429.6l-40.0997 0c-3.30001,0 -5.99884,-2.70001 -5.99884,-6.00002l0 -101.201c0,-3.30001 2.69883,-6.00002 5.99884,-6.00002l19.3005 0.00118111c7.39963,0 14.8004,0.799609 22.0997,2.29961 2.8004,0.600002 4.69962,3.00001 4.69962,5.89962l0 99.0003c0,3.30001 -2.70001,6.00002 -6.00002,6.00002zm-33.9993 -12l28.0997 0 0 -87.9995c-4.90041,-0.799609 -9.79964,-1.2 -14.8004,-1.2l-13.2993 -0.00118111 0 89.2007z"/></g></g><g id="_278284736"><path id="_214231952" class="fil0" d="M318.649 165.701l-239.199 0c-5.70002,0 -10.3004,-4.60041 -10.3004,-10.3004l0 -20.2005c0,-5.70002 4.60041,-10.3004 10.3004,-10.3004l239.199 0.00118111c5.70002,0 10.3004,4.60041 10.3004,10.3004l0 20.2005c-0.00118111,5.70002 -4.60041,10.2992 -10.3004,10.2992zm-237.399 -12l235.699 0 0 -16.6997 -235.699 0 0 16.6997zm237.399 -16.6997l0 0 0 0z"/></g><g id="_278276816"><path id="_278314832" class="fil0" d="M297.949 137.001l-197.699 0c-1.80001,0 -3.49962,-0.799609 -4.60041,-2.2004 -1.09961,-1.39961 -1.6004,-3.19962 -1.3004,-4.90041l23.6009 -124.999c0.499608,-2.8004 3.00001,-4.90041 5.89962,-4.90041l150.599 0c2.89962,0 5.40002,2.10001 5.89962,4.90041l23.5005 125c0.300001,1.80001 -0.100394,3.60001 -1.3004,4.90041 -1.19882,1.39961 -2.89962,2.19922 -4.59923,2.19922zm-190.399 -12l183.099 0 -21.1997 -113 -140.699 0 -21.1997 113z"/></g><g><g id="_278276792"><path id="_209308848" class="fil0" d="M480.149 259.7l-98.4995 0c-9.19963,0 -16.8001,-7.49884 -16.8001,-16.7989l0 -125.4c0,-3.30001 2.70001,-6.00002 6.00002,-6.00002 3.30001,0 6.00002,2.70001 6.00002,6.00002l0 125.5c0,2.59961 2.10001,4.80001 4.80001,4.80001l98.4995 0c2.59961,0 4.80001,-2.10001 4.80001,-4.80001l0 -125.5c0,-3.30001 2.70001,-6.00002 6.00002,-6.00002 3.30001,0 6.00002,2.70001 6.00002,6.00002l0 125.5c-0.100394,9.20082 -7.60042,16.6997 -16.8001,16.6997z"/></g><g id="_278277392"><path id="_213198672" class="fil0" d="M430.85 342.1c-3.30001,0 -6.00002,-2.70001 -6.00002,-6.00002l0 -82.3987c0,-3.30001 2.70001,-6.00002 6.00002,-6.00002 3.30001,0 6.00002,2.70001 6.00002,6.00002l0 82.3987c0,3.30001 -2.70001,6.00002 -6.00002,6.00002z"/></g><g id="_278276912"><path id="_284302240" class="fil0" d="M452.249 512l-42.7997 0c-4.50001,0 -8.20042,-3.70041 -8.20042,-8.20042l0 -165.5c0,-4.50001 3.70041,-8.20042 8.20042,-8.20042l42.7997 0.00118111c4.50001,0 8.20042,3.70041 8.20042,8.20042l0 165.601c0,4.39844 -3.70041,8.09884 -8.20042,8.09884zm-38.8997 -12l35.1001 0 0 -157.9 -35.1001 0 0 157.9zm38.8997 -157.9l0 0 0 0z"/></g><g id="_278277248"><path id="_284302168" class="fil0" d="M430.85 259.7c-3.30001,0 -6.00002,-2.70001 -6.00002,-5.99884l0 -136.2c0,-3.30001 2.70001,-6.00002 6.00002,-6.00002 3.30001,0 6.00002,2.70001 6.00002,6.00002l0 136.2c0,3.29883 -2.70001,5.99884 -6.00002,5.99884z"/></g></g><g id="_278277224"><path id="_284302024" class="fil0" d="M298.149 512l-198.099 0c-3.30001,0 -6.00002,-2.70001 -6.00002,-6.00002l0 -82.3999c0,-3.30001 2.70001,-6.00002 6.00002,-6.00002l198.199 0c3.30001,0 6.00002,2.70001 6.00002,6.00002l0 82.3999c-0.100394,3.30001 -2.8004,6.00002 -6.10041,6.00002zm-192.099 -12l186.199 0 0 -70.3998 -186.199 0 0 70.3998z"/></g></g></g></g></svg>