<?xml version="1.0" ?><svg enable-background="new 0 0 200 200" id="Layer_1" version="1.1" viewBox="0 0 200 200" xml:space="preserve" xmlns="http://www.w3.org/2000/svg" xmlns:xlink="http://www.w3.org/1999/xlink"><g><path d="M181.005,51.211L101.75,5.452c-1.083-0.625-2.417-0.625-3.5,0L18.995,51.211   c-1.083,0.625-1.75,1.781-1.75,3.031v91.516c0,1.25,0.667,2.406,1.75,3.031l79.255,45.759c0.542,0.313,1.146,0.469,1.75,0.469   s1.208-0.156,1.75-0.469l79.255-45.759c1.083-0.625,1.75-1.781,1.75-3.031V54.242C182.755,52.992,182.088,51.836,181.005,51.211z    M175.755,143.737L100,187.476l-75.755-43.738V56.263L100,12.524l75.755,43.738V143.737z" fill="#1D1D1B"/><path d="M98.25,18.531L30.321,57.75c-1.083,0.625-1.75,1.781-1.75,3.031v78.438c0,1.25,0.667,2.406,1.75,3.031   l67.929,39.219c0.542,0.313,1.146,0.469,1.75,0.469s1.208-0.156,1.75-0.469l67.929-39.219c1.083-0.625,1.75-1.781,1.75-3.031   V60.781c0-1.25-0.667-2.406-1.75-3.031L101.75,18.531C100.667,17.906,99.333,17.906,98.25,18.531z M164.429,62.802v74.396   L100,174.396l-64.429-37.198V62.802L100,25.604L164.429,62.802z" fill="#1D1D1B"/><path d="M84.272,53.489c0,0.018,0,0.035,0,0.053c-6.138,1.561-10.692,7.13-10.692,13.741   c0,1.955,0.414,3.898,1.206,5.697c0.056,0.647,0.292,1.275,0.692,1.808l2.063,2.738l-2.738-2.063   c-0.533-0.402-1.162-0.638-1.812-0.692c-1.787-0.782-3.728-1.19-5.692-1.19c-6.609,0-12.177,4.547-13.74,10.677   c-0.018,0-0.036,0-0.054,0c-7.825,0-14.192,6.36-14.192,14.178c0,7.69,6.163,13.971,13.813,14.172   c0.201,7.651,6.481,13.813,14.172,13.813c3.739,0,7.246-1.438,9.908-4.059l0.939-0.707l-2.668,3.544   c-0.4,0.531-0.635,1.158-0.691,1.806c-0.792,1.799-1.206,3.742-1.206,5.697c0,6.611,4.554,12.18,10.692,13.74   c0,0.019,0,0.036,0,0.054c0,7.825,6.36,14.191,14.177,14.191c7.69,0,13.971-6.163,14.172-13.813   c7.643-0.201,13.799-6.481,13.799-14.172c0-3.731-1.433-7.237-4.041-9.903l-1.304-1.731l1.719,1.294   c2.662,2.62,6.174,4.059,9.923,4.059c7.69,0,13.971-6.162,14.172-13.813c7.643-0.201,13.798-6.481,13.798-14.172   c0-7.836-6.402-14.201-14.23-14.178c-1.563-6.13-7.13-10.677-13.74-10.677c-1.964,0-3.906,0.408-5.692,1.19   c-0.649,0.055-1.278,0.29-1.811,0.691l-3.521,2.65l0.686-0.911c2.608-2.667,4.041-6.178,4.041-9.918   c0-7.691-6.156-13.972-13.799-14.173c-0.201-7.643-6.481-13.798-14.172-13.798C90.632,39.313,84.272,45.672,84.272,53.489z    M72.798,116.918c-0.141,0.106-0.274,0.223-0.398,0.35c-1.357,1.388-3.168,2.152-5.102,2.152c-3.958,0-7.177-3.227-7.177-7.192   c0-0.883,0.161-1.747,0.479-2.568c0.5-1.293,0.19-2.759-0.79-3.738c-0.668-0.669-1.563-1.025-2.475-1.025   c-0.425,0-0.853,0.077-1.263,0.236c-0.822,0.318-1.686,0.479-2.568,0.479c-3.966,0-7.192-3.22-7.192-7.177   c0-3.958,3.226-7.178,7.192-7.178c0.721,0,1.433,0.104,2.115,0.312c1.06,0.323,2.211,0.123,3.101-0.537   c0.891-0.66,1.416-1.703,1.416-2.812c0-0.128-0.005-0.257-0.015-0.463c0-3.957,3.219-7.177,7.177-7.177   c1.269,0,2.465,0.316,3.558,0.94c0.252,0.145,0.52,0.256,0.795,0.332L86.5,93.04c-0.024,0.046-0.04,0.096-0.063,0.143   c-0.243,0.482-0.466,0.974-0.656,1.479c-0.019,0.049-0.031,0.101-0.049,0.15c-0.019,0.054-0.034,0.109-0.053,0.162l-10.656-3.339   c-1.845-0.58-3.808,0.448-4.386,2.293s0.449,3.809,2.293,4.387L78.305,100l-5.376,1.685c-1.845,0.578-2.872,2.542-2.293,4.387   c0.469,1.496,1.85,2.454,3.339,2.454c0.347,0,0.699-0.052,1.047-0.161l10.649-3.337c0.013,0.038,0.024,0.076,0.037,0.113   c0.181,0.504,0.391,0.995,0.624,1.476c0.013,0.028,0.023,0.058,0.036,0.086L72.798,116.918z M112.243,139.879   c-0.894,0-1.762-0.161-2.581-0.479c-1.292-0.504-2.76-0.193-3.74,0.787c-0.981,0.98-1.291,2.447-0.79,3.74   c0.328,0.846,0.494,1.71,0.494,2.568c0,3.966-3.22,7.191-7.177,7.191c-3.958,0-7.177-3.226-7.177-7.191   c0-0.722,0.105-1.434,0.312-2.116c0.321-1.061,0.122-2.211-0.539-3.101c-0.66-0.891-1.703-1.415-2.811-1.415   c-0.127,0-0.261,0.005-0.462,0.015c-3.966,0-7.192-3.22-7.192-7.177c0-1.251,0.322-2.447,0.956-3.559   c0.145-0.253,0.255-0.521,0.332-0.797l11.176-14.85c0.043,0.022,0.09,0.037,0.133,0.059c0.583,0.294,1.184,0.546,1.798,0.763   l-3.34,10.661c-0.578,1.844,0.449,3.808,2.293,4.386c0.348,0.109,0.701,0.161,1.047,0.161c1.489,0,2.87-0.958,3.339-2.455   l1.685-5.377l1.685,5.377c0.469,1.497,1.85,2.455,3.339,2.455c0.347,0,0.699-0.052,1.047-0.161   c1.845-0.578,2.872-2.542,2.293-4.386l-3.337-10.651c0.553-0.194,1.093-0.419,1.618-0.675c0.021-0.01,0.044-0.017,0.065-0.027   l10.223,13.576c0.104,0.138,0.217,0.268,0.34,0.389c1.384,1.363,2.147,3.179,2.147,5.111   C119.42,136.659,116.2,139.879,112.243,139.879z M108.186,100c-0.043,0.274-0.061,0.547-0.039,0.815   c-0.164,1.641-0.817,3.203-1.885,4.468c-0.297,0.349-0.613,0.662-0.988,0.972c-1.463,1.249-3.336,1.937-5.273,1.937   c-0.249,0-0.497-0.011-0.744-0.034c-1.725-0.159-3.367-0.869-4.69-2.039c-0.363-0.326-0.613-0.576-0.826-0.832   c-1.246-1.474-1.932-3.351-1.932-5.286c0-2.005,0.733-3.931,2.065-5.425c0.027-0.03,0.054-0.061,0.08-0.092   c0.138-0.166,0.337-0.362,0.625-0.614c1.317-1.164,2.958-1.87,4.684-2.027c0.068,0.004,0.134,0.016,0.202,0.016   c0.177,0,0.356-0.014,0.535-0.042c0.179,0.028,0.358,0.042,0.535,0.042c0.068,0,0.134-0.012,0.201-0.016   c1.672,0.151,3.266,0.817,4.581,1.939c0.292,0.241,0.549,0.491,0.81,0.794c1.148,1.289,1.849,2.899,2.021,4.604   C108.124,99.449,108.143,99.724,108.186,100z M128.362,81.854c0.276-0.077,0.544-0.188,0.797-0.333   c1.093-0.624,2.29-0.94,3.558-0.94c3.958,0,7.177,3.22,7.177,7.149l-0.014,0.148c-0.114,1.161,0.358,2.302,1.258,3.044   c0.901,0.742,2.111,0.986,3.228,0.651c0.701-0.21,1.422-0.316,2.144-0.316c3.957,0,7.177,3.22,7.177,7.178   c0,3.957-3.22,7.177-7.177,7.177c-0.895,0-1.744-0.158-2.597-0.484c-1.292-0.497-2.754-0.183-3.73,0.799   c-0.976,0.979-1.283,2.443-0.784,3.733c0.328,0.848,0.495,1.712,0.495,2.568c0,3.966-3.219,7.192-7.177,7.192   c-1.943,0-3.76-0.765-5.117-2.152c-0.124-0.127-0.257-0.243-0.398-0.35l-13.569-10.215c0.017-0.035,0.028-0.072,0.045-0.107   c0.226-0.47,0.431-0.949,0.608-1.439c0.013-0.037,0.026-0.074,0.039-0.112l10.594,3.319c0.348,0.109,0.701,0.161,1.047,0.161   c1.489,0,2.87-0.958,3.339-2.454c0.578-1.845-0.449-3.809-2.293-4.387L121.635,100l5.376-1.685   c1.845-0.578,2.872-2.542,2.293-4.387c-0.578-1.845-2.542-2.873-4.386-2.293l-10.6,3.321c-0.029-0.083-0.052-0.168-0.082-0.25   c-0.003-0.008-0.005-0.017-0.008-0.026c-0.199-0.533-0.433-1.051-0.691-1.557c-0.014-0.027-0.023-0.056-0.037-0.083L128.362,81.854   z M105.626,53.489c0,0.858-0.166,1.722-0.494,2.566c-0.499,1.286-0.195,2.746,0.774,3.727c0.971,0.981,2.427,1.3,3.718,0.816   c0.872-0.327,1.753-0.493,2.618-0.493c3.958,0,7.177,3.22,7.177,7.178c0,1.942-0.763,3.763-2.147,5.126   c-0.123,0.121-0.237,0.251-0.34,0.389L106.71,86.374c-0.034-0.017-0.071-0.028-0.106-0.044c-0.495-0.24-1.001-0.452-1.519-0.636   c-0.001,0-0.002-0.001-0.003-0.001c-0.014-0.005-0.028-0.008-0.042-0.013l3.324-10.61c0.578-1.844-0.449-3.808-2.293-4.386   c-1.844-0.58-3.809,0.448-4.386,2.294L100,78.355l-1.685-5.377c-0.578-1.846-2.542-2.874-4.386-2.294   c-1.845,0.578-2.872,2.542-2.293,4.386l3.325,10.614c-0.612,0.216-1.21,0.468-1.79,0.76c-0.036,0.018-0.075,0.03-0.111,0.049   L81.868,71.637c-0.077-0.275-0.188-0.543-0.332-0.795c-0.634-1.111-0.956-2.308-0.956-3.559c0-3.958,3.226-7.178,7.152-7.179   l0.159,0.015c1.159,0.106,2.302-0.357,3.043-1.258c0.742-0.899,0.987-2.109,0.653-3.228c-0.209-0.702-0.316-1.424-0.316-2.145   c0-3.957,3.22-7.177,7.177-7.177C102.406,46.313,105.626,49.532,105.626,53.489z" fill="#1D1D1B"/></g></svg>